<mxfile host="app.diagrams.net" modified="2023-12-11T07:45:43.525Z" agent="Mozilla/5.0 (Windows NT 10.0; Win64; x64) AppleWebKit/537.36 (KHTML, like Gecko) Chrome/118.0.0.0 Safari/537.36" etag="YkRUwRFazEEE6fteDtwN" version="22.1.7" type="github">
  <diagram name="第 1 页" id="HLXinDbUOWOSAO1I3fax">
    <mxGraphModel dx="1762" dy="851" grid="0" gridSize="10" guides="1" tooltips="1" connect="1" arrows="1" fold="1" page="1" pageScale="1" pageWidth="827" pageHeight="1169" math="1" shadow="0">
      <root>
        <mxCell id="0" />
        <mxCell id="1" parent="0" />
        <mxCell id="lfXrCymtv0tgyg5XB64h-31" value="" style="endArrow=classic;html=1;rounded=0;" parent="1" edge="1">
          <mxGeometry width="50" height="50" relative="1" as="geometry">
            <mxPoint x="536" y="497" as="sourcePoint" />
            <mxPoint x="536" y="257" as="targetPoint" />
          </mxGeometry>
        </mxCell>
        <mxCell id="lfXrCymtv0tgyg5XB64h-14" value="" style="endArrow=classic;html=1;rounded=0;" parent="1" edge="1">
          <mxGeometry width="50" height="50" relative="1" as="geometry">
            <mxPoint x="375" y="497" as="sourcePoint" />
            <mxPoint x="375" y="257" as="targetPoint" />
          </mxGeometry>
        </mxCell>
        <mxCell id="lfXrCymtv0tgyg5XB64h-13" value="" style="endArrow=classic;html=1;rounded=0;" parent="1" edge="1">
          <mxGeometry width="50" height="50" relative="1" as="geometry">
            <mxPoint x="335" y="497" as="sourcePoint" />
            <mxPoint x="335" y="257" as="targetPoint" />
          </mxGeometry>
        </mxCell>
        <mxCell id="lfXrCymtv0tgyg5XB64h-5" value="" style="endArrow=classic;html=1;rounded=0;entryX=0;entryY=0.5;entryDx=0;entryDy=0;strokeColor=default;" parent="1" target="lfXrCymtv0tgyg5XB64h-20" edge="1">
          <mxGeometry width="50" height="50" relative="1" as="geometry">
            <mxPoint x="205" y="497" as="sourcePoint" />
            <mxPoint x="205" y="257" as="targetPoint" />
            <Array as="points">
              <mxPoint x="205" y="182" />
            </Array>
          </mxGeometry>
        </mxCell>
        <mxCell id="lfXrCymtv0tgyg5XB64h-6" value="" style="endArrow=classic;html=1;rounded=0;" parent="1" edge="1">
          <mxGeometry width="50" height="50" relative="1" as="geometry">
            <mxPoint x="255" y="497" as="sourcePoint" />
            <mxPoint x="255" y="257" as="targetPoint" />
          </mxGeometry>
        </mxCell>
        <mxCell id="lfXrCymtv0tgyg5XB64h-7" value="" style="endArrow=classic;html=1;rounded=0;" parent="1" edge="1">
          <mxGeometry width="50" height="50" relative="1" as="geometry">
            <mxPoint x="295" y="497" as="sourcePoint" />
            <mxPoint x="295" y="257" as="targetPoint" />
          </mxGeometry>
        </mxCell>
        <mxCell id="lfXrCymtv0tgyg5XB64h-8" value="" style="endArrow=classic;html=1;rounded=0;" parent="1" edge="1">
          <mxGeometry width="50" height="50" relative="1" as="geometry">
            <mxPoint x="495" y="497" as="sourcePoint" />
            <mxPoint x="495" y="257" as="targetPoint" />
          </mxGeometry>
        </mxCell>
        <mxCell id="lfXrCymtv0tgyg5XB64h-4" value="" style="rounded=1;whiteSpace=wrap;html=1;fillColor=#FFF8E0;strokeColor=#d6b656;opacity=50;" parent="1" vertex="1">
          <mxGeometry x="166" y="284" width="418" height="186" as="geometry" />
        </mxCell>
        <mxCell id="lfXrCymtv0tgyg5XB64h-1" value="&lt;font style=&quot;font-size: 18px;&quot; face=&quot;Georgia&quot;&gt;Encoder&lt;/font&gt;" style="rounded=1;whiteSpace=wrap;html=1;fillColor=#d5e8d4;strokeColor=#82b366;glass=0;" parent="1" vertex="1">
          <mxGeometry x="175" y="291" width="400" height="40" as="geometry" />
        </mxCell>
        <mxCell id="lfXrCymtv0tgyg5XB64h-2" value="&lt;font style=&quot;font-size: 18px;&quot; face=&quot;Georgia&quot;&gt;Encoder&lt;/font&gt;" style="rounded=1;whiteSpace=wrap;html=1;fillColor=#d5e8d4;strokeColor=#82b366;" parent="1" vertex="1">
          <mxGeometry x="175" y="419" width="400" height="40" as="geometry" />
        </mxCell>
        <mxCell id="lfXrCymtv0tgyg5XB64h-3" value="&lt;font face=&quot;Georgia&quot; style=&quot;font-size: 18px;&quot;&gt;Encoder&lt;/font&gt;" style="rounded=1;whiteSpace=wrap;html=1;fillColor=#d5e8d4;strokeColor=#82b366;" parent="1" vertex="1">
          <mxGeometry x="175" y="370" width="400" height="40" as="geometry" />
        </mxCell>
        <mxCell id="lfXrCymtv0tgyg5XB64h-9" value="&lt;font style=&quot;font-size: 14px;&quot; face=&quot;Georgia&quot;&gt;[CLS]&lt;/font&gt;" style="text;html=1;align=center;verticalAlign=middle;resizable=0;points=[];autosize=1;strokeColor=none;fillColor=none;" parent="1" vertex="1">
          <mxGeometry x="175" y="495" width="60" height="30" as="geometry" />
        </mxCell>
        <mxCell id="lfXrCymtv0tgyg5XB64h-10" value="&lt;font face=&quot;宋体-简&quot; color=&quot;#ea6b66&quot;&gt;&lt;span style=&quot;font-size: 14px;&quot;&gt;&lt;font style=&quot;vertical-align: inherit;&quot;&gt;&lt;font style=&quot;vertical-align: inherit;&quot;&gt;&lt;font style=&quot;vertical-align: inherit;&quot;&gt;&lt;font style=&quot;vertical-align: inherit;&quot;&gt;发&lt;/font&gt;&lt;/font&gt;&lt;/font&gt;&lt;/font&gt;&lt;/span&gt;&lt;/font&gt;" style="text;html=1;align=center;verticalAlign=middle;resizable=0;points=[];autosize=1;strokeColor=none;fillColor=none;" parent="1" vertex="1">
          <mxGeometry x="240" y="496" width="32" height="29" as="geometry" />
        </mxCell>
        <mxCell id="lfXrCymtv0tgyg5XB64h-11" value="&lt;font style=&quot;font-size: 14px;&quot; color=&quot;#ea6b66&quot; face=&quot;宋体-简&quot;&gt;&lt;font style=&quot;vertical-align: inherit;&quot;&gt;&lt;font style=&quot;vertical-align: inherit;&quot;&gt;展&lt;/font&gt;&lt;/font&gt;&lt;/font&gt;" style="text;html=1;align=center;verticalAlign=middle;resizable=0;points=[];autosize=1;strokeColor=none;fillColor=none;" parent="1" vertex="1">
          <mxGeometry x="279" y="496" width="32" height="29" as="geometry" />
        </mxCell>
        <mxCell id="lfXrCymtv0tgyg5XB64h-12" value="&lt;font face=&quot;Georgia&quot; style=&quot;font-size: 14px;&quot;&gt;&lt;font style=&quot;vertical-align: inherit;&quot;&gt;&lt;font style=&quot;vertical-align: inherit;&quot;&gt;&lt;font style=&quot;vertical-align: inherit;&quot;&gt;&lt;font style=&quot;vertical-align: inherit;&quot;&gt;&lt;font style=&quot;vertical-align: inherit;&quot;&gt;&lt;font style=&quot;vertical-align: inherit;&quot;&gt;...&lt;/font&gt;&lt;/font&gt;&lt;/font&gt;&lt;/font&gt;&lt;/font&gt;&lt;/font&gt;&lt;/font&gt;" style="text;html=1;align=center;verticalAlign=middle;resizable=0;points=[];autosize=1;strokeColor=none;fillColor=none;" parent="1" vertex="1">
          <mxGeometry x="222" y="494" width="29" height="29" as="geometry" />
        </mxCell>
        <mxCell id="lfXrCymtv0tgyg5XB64h-15" value="&lt;font style=&quot;font-size: 14px;&quot;&gt;&lt;font style=&quot;vertical-align: inherit;&quot;&gt;&lt;font style=&quot;vertical-align: inherit;&quot;&gt;光&lt;/font&gt;&lt;/font&gt;&lt;/font&gt;" style="text;html=1;align=center;verticalAlign=middle;resizable=0;points=[];autosize=1;strokeColor=none;fillColor=none;fontFamily=宋体-简;" parent="1" vertex="1">
          <mxGeometry x="319" y="496" width="32" height="29" as="geometry" />
        </mxCell>
        <mxCell id="lfXrCymtv0tgyg5XB64h-16" value="&lt;font style=&quot;font-size: 14px;&quot;&gt;&lt;font style=&quot;vertical-align: inherit;&quot;&gt;&lt;font style=&quot;vertical-align: inherit;&quot;&gt;伏&lt;/font&gt;&lt;/font&gt;&lt;/font&gt;" style="text;html=1;align=center;verticalAlign=middle;resizable=0;points=[];autosize=1;strokeColor=none;fillColor=none;fontFamily=宋体-简;" parent="1" vertex="1">
          <mxGeometry x="359" y="496" width="32" height="29" as="geometry" />
        </mxCell>
        <mxCell id="lfXrCymtv0tgyg5XB64h-17" value="&lt;font style=&quot;font-size: 14px;&quot;&gt;&lt;font style=&quot;vertical-align: inherit;&quot;&gt;&lt;font style=&quot;vertical-align: inherit;&quot;&gt;瓦&lt;/font&gt;&lt;/font&gt;&lt;/font&gt;" style="text;html=1;align=center;verticalAlign=middle;resizable=0;points=[];autosize=1;strokeColor=none;fillColor=none;fontFamily=宋体-简;" parent="1" vertex="1">
          <mxGeometry x="479" y="496" width="32" height="29" as="geometry" />
        </mxCell>
        <mxCell id="lfXrCymtv0tgyg5XB64h-18" value="&lt;font style=&quot;font-size: 14px;&quot;&gt;......&lt;/font&gt;" style="text;html=1;align=center;verticalAlign=middle;resizable=0;points=[];autosize=1;strokeColor=none;fillColor=none;" parent="1" vertex="1">
          <mxGeometry x="410" y="493" width="50" height="30" as="geometry" />
        </mxCell>
        <mxCell id="lfXrCymtv0tgyg5XB64h-34" style="edgeStyle=orthogonalEdgeStyle;rounded=0;orthogonalLoop=1;jettySize=auto;html=1;exitX=0.5;exitY=0;exitDx=0;exitDy=0;entryX=1;entryY=0.5;entryDx=0;entryDy=0;" parent="1" source="lfXrCymtv0tgyg5XB64h-19" target="lfXrCymtv0tgyg5XB64h-20" edge="1">
          <mxGeometry relative="1" as="geometry" />
        </mxCell>
        <mxCell id="lfXrCymtv0tgyg5XB64h-19" value="&lt;font style=&quot;font-size: 14px;&quot; face=&quot;Georgia&quot;&gt;avg_pooling&lt;/font&gt;" style="rounded=1;whiteSpace=wrap;html=1;fillColor=#dae8fc;strokeColor=#6c8ebf;" parent="1" vertex="1">
          <mxGeometry x="233" y="227" width="85" height="30" as="geometry" />
        </mxCell>
        <mxCell id="lfXrCymtv0tgyg5XB64h-26" style="edgeStyle=orthogonalEdgeStyle;rounded=0;orthogonalLoop=1;jettySize=auto;html=1;exitX=0.5;exitY=0;exitDx=0;exitDy=0;entryX=0.5;entryY=1;entryDx=0;entryDy=0;" parent="1" source="lfXrCymtv0tgyg5XB64h-20" target="lfXrCymtv0tgyg5XB64h-22" edge="1">
          <mxGeometry relative="1" as="geometry" />
        </mxCell>
        <mxCell id="lfXrCymtv0tgyg5XB64h-20" value="" style="shape=orEllipse;perimeter=ellipsePerimeter;whiteSpace=wrap;html=1;backgroundOutline=1;" parent="1" vertex="1">
          <mxGeometry x="232" y="174" width="16" height="16" as="geometry" />
        </mxCell>
        <mxCell id="lfXrCymtv0tgyg5XB64h-30" style="edgeStyle=orthogonalEdgeStyle;rounded=0;orthogonalLoop=1;jettySize=auto;html=1;exitX=0.5;exitY=0;exitDx=0;exitDy=0;entryX=0.5;entryY=1;entryDx=0;entryDy=0;dashed=1;" parent="1" source="lfXrCymtv0tgyg5XB64h-22" target="lfXrCymtv0tgyg5XB64h-24" edge="1">
          <mxGeometry relative="1" as="geometry" />
        </mxCell>
        <mxCell id="lfXrCymtv0tgyg5XB64h-22" value="&lt;font face=&quot;Georgia&quot;&gt;MLP&lt;/font&gt;" style="rounded=1;whiteSpace=wrap;html=1;fillColor=#ffe6cc;strokeColor=#d79b00;" parent="1" vertex="1">
          <mxGeometry x="215" y="127" width="50" height="23" as="geometry" />
        </mxCell>
        <mxCell id="lfXrCymtv0tgyg5XB64h-24" value="&lt;font style=&quot;font-size: 14px;&quot; color=&quot;#ea6b66&quot; face=&quot;楷体-简&quot;&gt;&lt;font style=&quot;vertical-align: inherit;&quot;&gt;&lt;font style=&quot;vertical-align: inherit;&quot;&gt;发展能源&lt;/font&gt;&lt;/font&gt;&lt;/font&gt;" style="text;html=1;strokeColor=none;fillColor=none;align=center;verticalAlign=middle;whiteSpace=wrap;rounded=0;" parent="1" vertex="1">
          <mxGeometry x="210" y="67" width="60" height="30" as="geometry" />
        </mxCell>
        <mxCell id="lfXrCymtv0tgyg5XB64h-32" value="&lt;font style=&quot;font-size: 14px;&quot; face=&quot;Georgia&quot;&gt;[SEP]&lt;/font&gt;" style="text;html=1;align=center;verticalAlign=middle;resizable=0;points=[];autosize=1;strokeColor=none;fillColor=none;" parent="1" vertex="1">
          <mxGeometry x="506" y="495" width="60" height="30" as="geometry" />
        </mxCell>
        <mxCell id="lfXrCymtv0tgyg5XB64h-35" value="&lt;font style=&quot;font-size: 18px;&quot; face=&quot;Georgia&quot;&gt;BERT&lt;/font&gt;" style="text;html=1;align=center;verticalAlign=middle;resizable=0;points=[];autosize=1;fillColor=#FFFFFF;" parent="1" vertex="1">
          <mxGeometry x="101" y="360" width="65" height="34" as="geometry" />
        </mxCell>
        <mxCell id="lfXrCymtv0tgyg5XB64h-36" value="&lt;font style=&quot;font-size: 14px;&quot;&gt;$$v_{0}$$&amp;nbsp;&lt;/font&gt;" style="text;html=1;align=center;verticalAlign=middle;resizable=0;points=[];autosize=1;strokeColor=none;fillColor=none;" parent="1" vertex="1">
          <mxGeometry x="150" y="266" width="85" height="29" as="geometry" />
        </mxCell>
        <mxCell id="lfXrCymtv0tgyg5XB64h-38" value="&lt;font style=&quot;font-size: 14px;&quot;&gt;$$v_{i}$$&amp;nbsp;&lt;/font&gt;" style="text;html=1;align=center;verticalAlign=middle;resizable=0;points=[];autosize=1;strokeColor=none;fillColor=none;" parent="1" vertex="1">
          <mxGeometry x="200" y="266" width="80" height="29" as="geometry" />
        </mxCell>
        <mxCell id="lfXrCymtv0tgyg5XB64h-39" value="&lt;font style=&quot;font-size: 14px;&quot;&gt;$$v_{i+1}$$&amp;nbsp;&lt;/font&gt;" style="text;html=1;align=center;verticalAlign=middle;resizable=0;points=[];autosize=1;strokeColor=none;fillColor=none;" parent="1" vertex="1">
          <mxGeometry x="232" y="266" width="96" height="29" as="geometry" />
        </mxCell>
        <mxCell id="lfXrCymtv0tgyg5XB64h-40" value="&lt;font style=&quot;font-size: 14px;&quot;&gt;$$v_{i+2}$$&amp;nbsp;&lt;/font&gt;" style="text;html=1;align=center;verticalAlign=middle;resizable=0;points=[];autosize=1;strokeColor=none;fillColor=none;" parent="1" vertex="1">
          <mxGeometry x="287" y="237" width="96" height="29" as="geometry" />
        </mxCell>
        <mxCell id="lfXrCymtv0tgyg5XB64h-41" value="&lt;font style=&quot;font-size: 14px;&quot;&gt;$$v_{i+3}$$&amp;nbsp;&lt;/font&gt;" style="text;html=1;align=center;verticalAlign=middle;resizable=0;points=[];autosize=1;strokeColor=none;fillColor=none;" parent="1" vertex="1">
          <mxGeometry x="327" y="237" width="96" height="29" as="geometry" />
        </mxCell>
        <mxCell id="lfXrCymtv0tgyg5XB64h-44" value="&lt;font style=&quot;font-size: 14px;&quot;&gt;......&lt;/font&gt;" style="text;html=1;align=center;verticalAlign=middle;resizable=0;points=[];autosize=1;strokeColor=none;fillColor=#FFF8E0;rotation=0;opacity=50;" parent="1" vertex="1">
          <mxGeometry x="414.5" y="333" width="41" height="29" as="geometry" />
        </mxCell>
        <mxCell id="lfXrCymtv0tgyg5XB64h-42" value="&lt;font style=&quot;font-size: 14px;&quot;&gt;$$v_{n-1}$$&amp;nbsp;&lt;/font&gt;" style="text;html=1;align=center;verticalAlign=middle;resizable=0;points=[];autosize=1;strokeColor=none;fillColor=none;" parent="1" vertex="1">
          <mxGeometry x="446.5" y="237" width="97" height="29" as="geometry" />
        </mxCell>
        <mxCell id="lfXrCymtv0tgyg5XB64h-43" value="&lt;font style=&quot;font-size: 14px;&quot;&gt;$$v_{n}$$&amp;nbsp;&lt;/font&gt;" style="text;html=1;align=center;verticalAlign=middle;resizable=0;points=[];autosize=1;strokeColor=none;fillColor=none;" parent="1" vertex="1">
          <mxGeometry x="493.5" y="237" width="85" height="29" as="geometry" />
        </mxCell>
        <mxCell id="kYW11jqbSFcBEVJKbfo7-1" value="" style="shape=curlyBracket;whiteSpace=wrap;html=1;rounded=1;flipH=1;labelPosition=right;verticalLabelPosition=middle;align=left;verticalAlign=middle;direction=north;" parent="1" vertex="1">
          <mxGeometry x="245" y="519" width="61" height="20" as="geometry" />
        </mxCell>
        <mxCell id="kYW11jqbSFcBEVJKbfo7-2" value="&lt;font face=&quot;Georgia&quot; style=&quot;font-size: 14px;&quot;&gt;target word&lt;/font&gt;" style="text;html=1;align=center;verticalAlign=middle;resizable=0;points=[];autosize=1;strokeColor=none;fillColor=none;" parent="1" vertex="1">
          <mxGeometry x="231" y="537" width="89" height="29" as="geometry" />
        </mxCell>
        <mxCell id="kYW11jqbSFcBEVJKbfo7-3" value="" style="shape=curlyBracket;whiteSpace=wrap;html=1;rounded=1;flipH=1;labelPosition=right;verticalLabelPosition=middle;align=left;verticalAlign=middle;direction=south;" parent="1" vertex="1">
          <mxGeometry x="208" y="56" width="64" height="20" as="geometry" />
        </mxCell>
        <mxCell id="kYW11jqbSFcBEVJKbfo7-4" value="&lt;font face=&quot;Georgia&quot; style=&quot;font-size: 14px;&quot;&gt;frame&lt;/font&gt;" style="text;html=1;align=center;verticalAlign=middle;resizable=0;points=[];autosize=1;strokeColor=none;fillColor=none;" parent="1" vertex="1">
          <mxGeometry x="213" y="27" width="54" height="29" as="geometry" />
        </mxCell>
      </root>
    </mxGraphModel>
  </diagram>
</mxfile>
